<svg xmlns="http://www.w3.org/2000/svg" xmlns:xlink="http://www.w3.org/1999/xlink" width="512" zoomAndPan="magnify" viewBox="0 0 384 383.999986" height="512" preserveAspectRatio="xMidYMid meet" version="1.0"><defs><clipPath id="ec626b2479"><path d="M 134.5 159.441406 L 233 159.441406 L 233 268.941406 L 134.5 268.941406 Z M 134.5 159.441406 " clip-rule="nonzero"/></clipPath><clipPath id="d0147bff5b"><path d="M 137 159.441406 L 235.75 159.441406 L 235.75 268.941406 L 137 268.941406 Z M 137 159.441406 " clip-rule="nonzero"/></clipPath><clipPath id="6fddcbe8c8"><path d="M 110 27.257812 L 137 27.257812 L 137 56 L 110 56 Z M 110 27.257812 " clip-rule="nonzero"/></clipPath><clipPath id="0033702a46"><path d="M 25.703125 29.40625 L 375.316406 29.40625 L 375.316406 356.503906 L 25.703125 356.503906 Z M 25.703125 29.40625 " clip-rule="nonzero"/></clipPath></defs><g clip-path="url(#ec626b2479)"><path fill="#ffd13f" d="M 198.328125 219.292969 C 199.15625 218.984375 200 218.703125 200.851562 218.460938 C 206.101562 216.96875 226.839844 221.726562 232.515625 223.171875 C 226.839844 221.726562 206.875 213.925781 202.976562 210.097656 C 202.339844 209.472656 201.730469 208.824219 201.152344 208.152344 C 201.523438 207.34375 201.925781 206.542969 202.351562 205.769531 C 205.015625 200.992188 226.019531 194.476562 231.0625 191.46875 C 226.03125 194.464844 203.425781 198.296875 197.96875 198.351562 C 197.082031 198.363281 196.191406 198.339844 195.316406 198.273438 C 195.003906 197.4375 194.726562 196.59375 194.484375 195.738281 C 193 190.472656 198.671875 165.136719 200.113281 159.441406 C 198.671875 165.136719 189.964844 189.6875 186.148438 193.609375 C 185.523438 194.246094 184.878906 194.859375 184.207031 195.4375 C 183.402344 195.066406 182.617188 194.671875 181.832031 194.234375 C 177.070312 191.597656 152.015625 172.597656 149.027344 167.554688 C 152.015625 172.597656 174.382812 193.203125 174.4375 198.675781 C 174.449219 199.566406 174.429688 200.457031 174.359375 201.339844 C 173.527344 201.652344 172.6875 201.929688 171.832031 202.171875 C 166.585938 203.664062 140.183594 203.859375 134.507812 202.414062 C 140.183594 203.859375 165.800781 206.707031 169.710938 210.523438 C 170.34375 211.148438 170.957031 211.796875 171.53125 212.46875 C 171.164062 213.277344 170.761719 214.066406 170.332031 214.851562 C 167.667969 219.628906 143.863281 226.851562 138.832031 229.847656 C 143.863281 226.851562 169.261719 222.328125 174.726562 222.269531 C 175.617188 222.257812 176.503906 222.28125 177.378906 222.347656 C 177.691406 223.183594 177.96875 224.027344 178.210938 224.882812 C 179.699219 230.148438 170.367188 263.25 168.925781 268.941406 C 170.367188 263.25 182.722656 230.921875 186.539062 227.011719 C 187.160156 226.375 187.808594 225.761719 188.476562 225.183594 C 189.285156 225.554688 190.066406 225.960938 190.851562 226.386719 C 195.617188 229.058594 209.964844 242.480469 212.953125 247.527344 C 209.964844 242.480469 198.304688 227.464844 198.234375 221.980469 C 198.234375 221.078125 198.269531 220.1875 198.328125 219.292969 Z M 198.328125 219.292969 " fill-opacity="1" fill-rule="nonzero"/></g><g clip-path="url(#d0147bff5b)"><path fill="#ff9015" d="M 201.554688 219.292969 C 202.386719 218.984375 203.230469 218.703125 204.082031 218.460938 C 209.332031 216.96875 230.070312 221.726562 235.746094 223.171875 C 230.070312 221.726562 210.101562 213.925781 206.203125 210.097656 C 205.570312 209.472656 204.960938 208.824219 204.382812 208.152344 C 204.75 207.34375 205.15625 206.542969 205.582031 205.769531 C 208.246094 200.992188 229.25 194.476562 234.292969 191.46875 C 229.261719 194.464844 206.65625 198.296875 201.199219 198.351562 C 200.3125 198.363281 199.421875 198.339844 198.546875 198.273438 C 198.234375 197.4375 197.957031 196.59375 197.714844 195.738281 C 196.226562 190.472656 201.902344 165.136719 203.34375 159.441406 C 201.902344 165.136719 193.195312 189.6875 189.375 193.609375 C 188.753906 194.246094 188.109375 194.859375 187.4375 195.4375 C 186.632812 195.066406 185.847656 194.671875 185.0625 194.234375 C 180.296875 191.597656 155.246094 172.597656 152.257812 167.554688 C 155.246094 172.597656 177.609375 193.203125 177.667969 198.675781 C 177.679688 199.566406 177.65625 200.457031 177.589844 201.339844 C 176.757812 201.652344 175.914062 201.929688 175.0625 202.171875 C 169.8125 203.664062 143.410156 203.859375 137.738281 202.414062 C 143.410156 203.859375 169.03125 206.707031 172.941406 210.523438 C 173.574219 211.148438 174.183594 211.796875 174.761719 212.46875 C 174.394531 213.277344 174 214.066406 173.5625 214.851562 C 170.898438 219.628906 147.089844 226.851562 142.0625 229.847656 C 147.089844 226.851562 172.488281 222.328125 177.957031 222.269531 C 178.84375 222.257812 179.734375 222.28125 180.609375 222.347656 C 180.921875 223.183594 181.199219 224.027344 181.441406 224.882812 C 182.929688 230.148438 173.597656 263.25 172.15625 268.941406 C 173.597656 263.25 185.949219 230.921875 189.769531 227.011719 C 190.390625 226.375 191.039062 225.761719 191.707031 225.183594 C 192.511719 225.554688 193.296875 225.960938 194.082031 226.386719 C 198.847656 229.058594 213.195312 242.480469 216.183594 247.527344 C 213.195312 242.480469 201.535156 227.464844 201.464844 221.980469 C 201.464844 221.078125 201.5 220.1875 201.554688 219.292969 Z M 201.554688 219.292969 " fill-opacity="1" fill-rule="nonzero"/></g><g clip-path="url(#6fddcbe8c8)"><path fill="#000000" d="M 114.976562 40.636719 C 119.910156 43.777344 124.542969 47.21875 129.726562 50.109375 C 128.515625 43.71875 126.277344 38.355469 125.160156 31.863281 C 121.992188 35.015625 117.480469 36.824219 114.976562 40.636719 Z M 127.972656 27.304688 C 130.230469 29.78125 129.496094 33.328125 130.078125 36.425781 C 130.621094 39.316406 132.160156 41.710938 132.890625 44.496094 C 133.277344 45.976562 133.074219 47.570312 133.59375 49.054688 C 134.292969 51.0625 136.292969 52.339844 136.050781 54.671875 C 131.175781 57.203125 126.566406 52.835938 122.351562 50.109375 C 120.703125 49.042969 118.425781 47.847656 116.027344 46.25 C 114.511719 45.238281 111.066406 43.21875 110.761719 41.6875 C 109.820312 37.003906 120.605469 29.507812 125.160156 27.304688 C 125.253906 27.257812 127.582031 27.339844 127.972656 27.304688 " fill-opacity="1" fill-rule="evenodd"/></g><path fill="#ffe000" d="M 125.164062 31.863281 C 126.277344 38.351562 128.515625 43.71875 129.730469 50.109375 C 124.542969 47.21875 119.910156 43.777344 114.976562 40.636719 C 117.480469 36.820312 121.992188 35.015625 125.164062 31.863281 " fill-opacity="1" fill-rule="evenodd"/><path fill="#ffe000" d="M 177.148438 35.375 C 177.433594 35.441406 177.496094 35.726562 177.851562 35.722656 C 186.328125 47.644531 195.101562 60.460938 203.492188 73.621094 C 205.53125 76.816406 209.59375 84.894531 213.328125 84.847656 C 216.125 84.8125 218.964844 79.15625 220.703125 76.777344 C 227.113281 68.011719 235.070312 59.625 241.429688 52.566406 C 242.585938 66.222656 244.773438 79.597656 246.695312 92.566406 C 247.320312 96.765625 247.707031 101.191406 249.507812 104.847656 C 262.828125 101.683594 280.804688 100.738281 295.171875 103.445312 C 280.117188 115.308594 267.425781 129.527344 253.019531 142.039062 C 238.742188 129.960938 217.351562 119.117188 194.359375 125.898438 C 185.953125 128.378906 178.101562 133.816406 171.527344 138.882812 C 160.371094 147.480469 149.484375 165.601562 141.320312 177.828125 C 131.496094 192.546875 122.605469 206.136719 120.945312 226.601562 C 120.089844 237.1875 123.660156 243.859375 127.269531 251.511719 C 133.457031 264.636719 143.335938 273.113281 155.371094 280.285156 C 151.160156 289.53125 148.378906 300.203125 145.886719 311.164062 C 143.308594 307.945312 141.132812 304.769531 138.859375 300.285156 C 137.410156 297.417969 135.175781 289.921875 132.1875 289.40625 C 129.140625 288.886719 125.015625 293.972656 123.40625 295.722656 C 120.78125 298.578125 118.300781 301.25 116.378906 303.441406 C 111.285156 309.261719 108.511719 315.609375 103.734375 320.636719 C 97.238281 303.347656 94.824219 278.753906 94.953125 257.128906 C 88.074219 254.132812 80.671875 258.65625 74.230469 260.636719 C 67.148438 262.8125 60.078125 264.894531 52.800781 266.25 C 54.292969 258.875 57.289062 251.632812 60.882812 245.199219 C 65.484375 236.953125 69.691406 229.03125 75.984375 223.441406 C 77.609375 222 79.910156 221.074219 79.847656 219.582031 C 79.730469 216.582031 70.984375 215.046875 67.554688 213.96875 C 54.222656 209.78125 40.949219 204.59375 30.320312 198.179688 C 34.167969 193.140625 40.300781 190.0625 46.128906 186.601562 C 51.65625 183.316406 57.113281 178.84375 62.988281 176.425781 C 65.285156 175.480469 68.242188 175.777344 69.664062 173.269531 C 63.671875 155.746094 56.367188 139.53125 53.152344 119.230469 C 70.667969 118.667969 85.386719 125.566406 102.679688 125.199219 C 103.671875 115.6875 100.820312 106.144531 99.167969 96.777344 C 97.511719 87.382812 95.523438 78.007812 93.199219 69.410156 C 115.773438 73.992188 136.480469 80.441406 158.882812 85.199219 C 165.910156 69.53125 170.324219 51.246094 177.148438 35.375 " fill-opacity="1" fill-rule="evenodd"/><path fill="#000000" d="M 13.460938 128.003906 C 17.527344 129.558594 21.660156 131.042969 25.40625 132.917969 C 22.898438 126.53125 20.429688 120.105469 16.972656 114.671875 C 15.882812 119.195312 12.992188 121.921875 13.460938 128.003906 Z M 9.949219 129.757812 C 8.824219 123.933594 12.488281 108.765625 18.027344 109.757812 C 20.839844 110.265625 23.183594 117.414062 24.703125 120.636719 C 26.765625 125.019531 29.457031 128.761719 29.96875 132.566406 C 30.386719 135.648438 29.445312 138.164062 28.214844 138.53125 C 25.664062 139.292969 25.113281 136.628906 23.648438 135.722656 C 19.710938 133.292969 12.410156 133.308594 9.949219 129.757812 " fill-opacity="1" fill-rule="evenodd"/><path fill="#ffe000" d="M 16.972656 114.671875 C 20.429688 120.105469 22.898438 126.53125 25.40625 132.917969 C 21.660156 131.042969 17.527344 129.554688 13.460938 128.003906 C 12.992188 121.921875 15.882812 119.195312 16.972656 114.671875 " fill-opacity="1" fill-rule="evenodd"/><path fill="#b71c1c" d="M 177.851562 283.792969 C 177.425781 283.867188 177.636719 284.183594 177.851562 284.496094 C 179.386719 285.296875 184.628906 285.996094 185.578125 284.144531 C 184.417969 283.023438 179.277344 282.332031 177.851562 283.792969 Z M 193.308594 284.144531 C 195.9375 284.726562 198.550781 282.40625 199.980469 280.636719 C 197.050781 281.101562 193.984375 281.429688 193.308594 284.144531 Z M 170.476562 280.988281 C 168.316406 279.632812 166.289062 278.148438 163.097656 277.828125 C 163.9375 280.269531 167.417969 281.929688 170.476562 280.988281 Z M 204.898438 278.53125 C 206.519531 278.042969 207.925781 277.34375 207.707031 275.023438 C 205.765625 275.050781 204.023438 276.820312 204.898438 278.53125 Z M 155.722656 273.96875 C 154.769531 271.644531 152.796875 270.339844 150.101562 269.757812 C 150.554688 272.582031 152.84375 273.570312 155.722656 273.96875 Z M 213.679688 270.460938 C 216.839844 270.457031 218.019531 268.480469 218.597656 265.898438 C 216.78125 265.777344 213.519531 268.582031 213.679688 270.460938 Z M 139.5625 262.039062 C 140.3125 263.921875 142.75 265.792969 144.480469 265.546875 C 143.988281 263.40625 141.738281 261.351562 139.5625 262.039062 Z M 222.460938 260.636719 C 224.699219 260.179688 225.613281 258.40625 225.621094 255.722656 C 223.3125 256.105469 222.929688 258.414062 222.460938 260.636719 Z M 133.945312 254.320312 C 133.4375 256.234375 135.417969 258.691406 137.808594 258.882812 C 137.714844 256.339844 135.667969 254.082031 133.945312 254.320312 Z M 232.296875 248.707031 C 234.78125 249.703125 236.109375 246.726562 236.511719 244.496094 C 234.457031 243.929688 233.28125 247.054688 232.296875 248.707031 Z M 130.78125 245.898438 C 130.757812 244.167969 130.609375 242.558594 129.027344 242.390625 C 128.117188 243.828125 129.328125 245.699219 130.78125 245.898438 Z M 127.972656 238.179688 C 127.664062 236.5 128.273438 233.902344 126.566406 233.617188 C 125.328125 234.71875 125.683594 238.46875 127.972656 238.179688 Z M 240.027344 237.128906 C 241.851562 236.609375 242.234375 234.65625 242.484375 232.566406 C 240.015625 232.285156 239.640625 235.695312 240.027344 237.128906 Z M 267.070312 169.058594 C 267.089844 166.816406 266.578125 165.105469 264.964844 164.496094 C 264.730469 164.496094 264.496094 164.496094 264.261719 164.496094 C 263.96875 165.941406 264.628906 169.199219 267.070312 169.058594 Z M 262.15625 160.636719 C 262.6875 158.621094 260.753906 156.246094 258.992188 155.375 C 257.582031 157.195312 260.359375 159.796875 262.15625 160.636719 Z M 253.726562 151.160156 C 254.566406 149.054688 252.785156 146.789062 250.210938 146.953125 C 250.738281 148.996094 252.21875 150.089844 253.726562 151.160156 Z M 243.1875 142.742188 C 243.5625 140.878906 241.289062 138.84375 238.269531 139.230469 C 239.078125 141.230469 241.082031 142.039062 243.1875 142.742188 Z M 225.976562 134.671875 C 226.566406 136.652344 229.652344 136.140625 231.242188 137.125 C 231.640625 134.320312 228.117188 133.792969 225.976562 134.671875 Z M 190.496094 132.917969 C 191.875 133.660156 193.746094 132.300781 194.714844 131.511719 C 193.519531 130.121094 190.738281 131.242188 190.496094 132.917969 Z M 214.734375 131.863281 C 216.199219 132.054688 219.398438 133.398438 220.355469 131.863281 C 219.765625 130.175781 215.246094 129.78125 214.734375 131.863281 Z M 201.738281 131.511719 C 203.332031 132.144531 205.9375 131.761719 208.058594 131.863281 C 208.554688 128.667969 202.257812 129.667969 201.738281 131.511719 Z M 272.691406 170.8125 C 260.28125 172.441406 251.4375 181.203125 244.589844 189.757812 C 241.679688 193.398438 238.179688 197.710938 237.214844 201.6875 C 233.910156 215.308594 242.882812 226.859375 249.15625 232.917969 C 240.421875 251.195312 227.144531 266.839844 212.277344 279.933594 C 204.019531 287.207031 193.0625 293.117188 177.851562 289.054688 C 164.601562 285.519531 153.714844 276.996094 143.425781 268.707031 C 134.273438 261.328125 125.210938 247.589844 123.40625 234.320312 C 122.070312 224.507812 125.96875 209.648438 129.378906 201.6875 C 133.832031 191.28125 142.710938 179.90625 149.75 169.40625 C 157.289062 158.160156 164.222656 147.546875 173.285156 140.285156 C 181.183594 133.953125 192.332031 127.382812 204.546875 126.601562 C 223.355469 125.398438 236.429688 132.320312 247.050781 140.285156 C 257.976562 148.476562 267.453125 157.582031 272.691406 170.8125 " fill-opacity="1" fill-rule="evenodd"/><path fill="#000000" d="M 208.058594 131.863281 C 205.9375 131.761719 203.328125 132.144531 201.738281 131.515625 C 202.253906 129.671875 208.550781 128.671875 208.058594 131.863281 " fill-opacity="1" fill-rule="evenodd"/><path fill="#000000" d="M 220.351562 131.863281 C 219.398438 133.402344 216.195312 132.058594 214.734375 131.863281 C 215.246094 129.78125 219.765625 130.179688 220.351562 131.863281 " fill-opacity="1" fill-rule="evenodd"/><path fill="#000000" d="M 194.710938 131.511719 C 193.746094 132.300781 191.875 133.660156 190.496094 132.917969 C 190.738281 131.242188 193.519531 130.125 194.710938 131.511719 " fill-opacity="1" fill-rule="evenodd"/><path fill="#000000" d="M 231.242188 137.125 C 229.652344 136.144531 226.566406 136.652344 225.972656 134.671875 C 228.117188 133.796875 231.640625 134.320312 231.242188 137.125 " fill-opacity="1" fill-rule="evenodd"/><path fill="#000000" d="M 238.265625 139.234375 C 241.289062 138.847656 243.5625 140.878906 243.183594 142.742188 C 241.082031 142.039062 239.078125 141.230469 238.265625 139.234375 " fill-opacity="1" fill-rule="evenodd"/><path fill="#000000" d="M 250.210938 146.953125 C 252.785156 146.789062 254.566406 149.054688 253.726562 151.164062 C 252.21875 150.089844 250.738281 148.996094 250.210938 146.953125 " fill-opacity="1" fill-rule="evenodd"/><path fill="#000000" d="M 258.992188 155.375 C 260.753906 156.246094 262.6875 158.621094 262.15625 160.636719 C 260.359375 159.796875 257.582031 157.195312 258.992188 155.375 " fill-opacity="1" fill-rule="evenodd"/><path fill="#000000" d="M 264.261719 164.496094 C 264.496094 164.496094 264.730469 164.496094 264.964844 164.496094 C 266.578125 165.105469 267.089844 166.816406 267.074219 169.054688 C 264.628906 169.199219 263.96875 165.941406 264.261719 164.496094 " fill-opacity="1" fill-rule="evenodd"/><path fill="#b71c1c" d="M 305.710938 342.390625 C 307.273438 341.964844 308.289062 340.992188 308.167969 338.882812 C 306.46875 339.042969 304.746094 340.695312 305.710938 342.390625 Z M 313.085938 331.160156 C 315.546875 331.398438 316.035156 329.664062 316.25 327.652344 C 314.542969 326.890625 313.226562 329.226562 313.085938 331.160156 Z M 300.789062 324.847656 C 302.875 323.882812 304.140625 322.109375 304.65625 319.582031 C 302.675781 319.117188 300.152344 322.695312 300.789062 324.847656 Z M 288.5 318.179688 C 289.601562 318.9375 291.078125 320.835938 292.714844 319.933594 C 292.992188 317.902344 289.632812 316.550781 288.5 318.179688 Z M 285.6875 315.375 C 285.496094 314.046875 284.675781 313.34375 283.230469 313.269531 C 283.078125 314.867188 284.527344 316.1875 285.6875 315.375 Z M 322.921875 317.828125 C 326.054688 317.917969 326.519531 315.34375 327.488281 313.269531 C 324.832031 312.324219 323.539062 315.585938 322.921875 317.828125 Z M 272.691406 308.355469 C 272.492188 309.21875 275.773438 311.25 277.257812 310.460938 C 276.941406 308.699219 274.113281 307.875 272.691406 308.355469 Z M 309.222656 312.214844 C 311.382812 311.683594 312.527344 310.136719 313.085938 308.003906 C 313.011719 307.609375 312.695312 307.457031 312.382812 307.304688 C 311.066406 308.675781 309.078125 309.382812 309.222656 312.214844 Z M 262.152344 306.25 C 262.257812 308.25 265.109375 307.507812 267.070312 307.652344 C 267.582031 305.175781 263.492188 305.75 262.152344 306.25 Z M 249.15625 306.601562 C 250.375 306.878906 253.726562 306.574219 254.074219 304.847656 C 252.777344 303.457031 249.019531 304.367188 249.15625 306.601562 Z M 236.160156 304.144531 C 235.605469 306 241.617188 305.851562 242.480469 304.144531 C 241.75 302.488281 237.335938 303.121094 236.160156 304.144531 Z M 332.757812 304.847656 C 335.179688 304.34375 335.875 302.113281 336.269531 299.582031 C 333.5625 299.625 332.394531 302.890625 332.757812 304.847656 Z M 227.730469 299.933594 C 226.839844 297.785156 224.386719 297.195312 222.460938 296.074219 C 221.539062 298.507812 225.21875 300.933594 227.730469 299.933594 Z M 318.707031 298.882812 C 320.796875 298.984375 320.625 296.824219 321.515625 295.722656 C 321.015625 295.640625 320.921875 295.144531 320.460938 295.023438 C 319.351562 295.785156 318.390625 296.695312 318.707031 298.882812 Z M 217.542969 292.566406 C 217.296875 290.472656 216.609375 288.820312 214.382812 288.707031 C 214.511719 290.917969 215.316406 292.453125 217.542969 292.566406 Z M 340.484375 292.917969 C 342.8125 292.902344 343.023438 290.773438 343.292969 288.707031 C 342.8125 288.722656 342.523438 288.542969 342.238281 288.355469 C 341.359375 289.582031 340.378906 290.707031 340.484375 292.917969 Z M 326.433594 285.898438 C 328.292969 285.652344 328.664062 283.917969 329.246094 282.390625 C 326.949219 282.066406 325.839844 284.472656 326.433594 285.898438 Z M 346.808594 282.390625 C 349.648438 282.421875 349.714844 279.679688 350.667969 277.828125 C 348.441406 276.015625 346.933594 279.882812 346.808594 282.390625 Z M 333.808594 275.375 C 335.078125 274.652344 335.398438 272.984375 335.917969 271.511719 C 334.15625 270.167969 331.945312 274.214844 333.808594 275.375 Z M 353.480469 271.164062 C 355.328125 270.898438 355.980469 269.449219 355.9375 267.304688 C 353.789062 265.867188 351.980469 269.988281 353.480469 271.164062 Z M 338.027344 266.953125 C 339.796875 266.3125 341.246094 263.714844 340.484375 261.6875 C 338.453125 262.097656 336.460938 265.152344 338.027344 266.953125 Z M 359.101562 260.636719 C 361.96875 261.09375 362.652344 257.730469 362.261719 256.074219 C 360.1875 256.515625 358.753906 258.871094 359.101562 260.636719 Z M 238.621094 263.09375 C 240.515625 263.554688 241.464844 261.8125 242.832031 260.988281 C 249.851562 256.757812 260.386719 256.269531 271.285156 256.074219 C 258.917969 254.277344 244.101562 254.414062 238.621094 263.09375 Z M 339.078125 256.074219 C 339.117188 254.28125 337.734375 253.910156 335.917969 253.96875 C 335.710938 256.019531 338.171875 257.230469 339.078125 256.074219 Z M 328.191406 248.355469 C 328.308594 250.207031 330.382812 251.648438 332.054688 250.8125 C 331.929688 248.96875 329.710938 247.671875 328.191406 248.355469 Z M 324.328125 244.144531 C 324.054688 241.609375 322.160156 240.695312 320.460938 239.582031 C 319.664062 241.867188 321.523438 244.3125 324.328125 244.144531 Z M 317.652344 235.023438 C 318.371094 233.46875 316.960938 231.367188 315.546875 230.8125 C 314.851562 232.339844 315.523438 235.175781 317.652344 235.023438 Z M 313.789062 226.25 C 314.023438 226.25 314.257812 226.25 314.492188 226.25 C 315.0625 225.046875 314.457031 222.425781 314.136719 220.988281 C 313.691406 220.96875 313.65625 220.539062 313.085938 220.636719 C 312.25 222.101562 312.019531 225.488281 313.789062 226.25 Z M 259.691406 213.96875 C 259.976562 215.558594 260.171875 217.238281 261.800781 217.480469 C 262.621094 216.128906 262.179688 213.492188 260.75 213.269531 C 260.65625 213.761719 259.976562 213.667969 259.691406 213.96875 Z M 313.789062 216.777344 C 315.03125 215.707031 314.53125 211.726562 314.136719 210.109375 C 313.789062 210.109375 313.4375 210.109375 313.085938 210.109375 C 312.910156 212.179688 311.585938 216.351562 313.789062 216.777344 Z M 260.046875 206.25 C 261.085938 206.03125 261.359375 201.757812 259.691406 202.039062 C 258.90625 202.507812 258.21875 206.367188 260.046875 206.25 Z M 310.980469 206.601562 C 313.125 206.234375 312.867188 200.996094 310.277344 201.339844 C 310.386719 203.214844 310.511719 205.078125 310.980469 206.601562 Z M 307.113281 198.882812 C 308.683594 196.808594 306.054688 193.90625 303.25 193.96875 C 304.394531 195.753906 305.234375 197.835938 307.113281 198.882812 Z M 264.960938 195.722656 C 266.894531 195.199219 267.914062 193.757812 268.476562 191.863281 C 266.714844 191.074219 264.148438 193.9375 264.960938 195.722656 Z M 290.605469 189.058594 C 292 189.769531 293.515625 190.359375 295.523438 190.460938 C 296.097656 187.6875 291.324219 187.410156 290.605469 189.058594 Z M 276.554688 189.757812 C 278.4375 189.183594 281.449219 189.734375 282.175781 188.003906 C 280.710938 186.695312 276.207031 187.066406 276.554688 189.757812 Z M 286.039062 199.234375 C 278.699219 208.183594 280.875 226.070312 270.582031 232.917969 C 262.519531 238.28125 250.609375 232.601562 245.644531 226.25 C 242.621094 222.382812 237.269531 210.367188 239.671875 202.390625 C 242.160156 194.136719 250.21875 185.75 255.832031 180.988281 C 263.082031 174.835938 274.386719 171.238281 287.441406 172.566406 C 302.410156 174.089844 316.378906 181.332031 325.730469 189.410156 C 336.371094 198.59375 343.214844 211.289062 339.078125 231.164062 C 338.683594 233.0625 338.066406 233.035156 337.324219 235.726562 C 340.347656 234.683594 341.246094 236.414062 344.347656 238.882812 C 348.242188 241.980469 352.984375 245.773438 356.992188 248.355469 C 352.574219 259.851562 346.226562 269.414062 340.484375 279.585938 C 349.164062 272.113281 354.949219 258.710938 359.804688 246.25 C 361.472656 246.105469 362.675781 246.421875 363.667969 246.953125 C 364.542969 247.949219 364.578125 249.78125 364.71875 251.511719 C 366.835938 251.171875 367.09375 248.972656 370.339844 249.757812 C 374.90625 255.925781 367.902344 261.804688 364.371094 268.003906 C 352.371094 289.074219 337.15625 307.472656 323.976562 328.355469 C 320.328125 334.132812 315.914062 340.636719 311.679688 346.601562 C 309.742188 349.332031 308.105469 354.191406 304.304688 353.617188 C 301.429688 353.1875 300.371094 348.234375 302.898438 345.898438 C 299.035156 345.34375 297.285156 349.792969 294.820312 346.601562 C 294.949219 344.625 296.210938 343.78125 297.980469 343.445312 C 303.59375 336.535156 310.097656 330.515625 315.546875 323.441406 C 309.414062 327.847656 302.640625 334.648438 297.628906 341.335938 C 289.433594 335.371094 280.765625 329.878906 272.691406 323.792969 C 275.394531 323.453125 277.507812 322.523438 279.011719 320.988281 C 269.117188 321.316406 263.671875 326.410156 251.613281 325.546875 C 227.695312 323.835938 213.257812 302.828125 199.980469 290.460938 C 212.152344 285.210938 221.011719 275.359375 229.484375 266.25 C 238.074219 257.015625 245.203125 245.953125 251.261719 234.320312 C 263.699219 242.730469 279.257812 234.007812 281.121094 220.636719 C 283.820312 221.097656 286.28125 221.800781 288.148438 223.09375 C 289.046875 229.328125 291.394531 234.117188 295.171875 237.476562 C 293.769531 232.796875 291.160156 226.28125 289.550781 220.636719 C 287.167969 219.742188 284.613281 219.019531 281.824219 218.53125 C 282.953125 211.824219 283.953125 204.984375 286.039062 199.234375 " fill-opacity="1" fill-rule="evenodd"/><path fill="#000000" d="M 282.175781 188.003906 C 281.449219 189.734375 278.4375 189.183594 276.554688 189.757812 C 276.207031 187.066406 280.710938 186.695312 282.175781 188.003906 " fill-opacity="1" fill-rule="evenodd"/><path fill="#000000" d="M 295.523438 190.460938 C 293.515625 190.359375 292 189.769531 290.605469 189.058594 C 291.324219 187.410156 296.097656 187.6875 295.523438 190.460938 " fill-opacity="1" fill-rule="evenodd"/><path fill="#000000" d="M 268.476562 191.867188 C 267.914062 193.757812 266.894531 195.199219 264.964844 195.722656 C 264.148438 193.9375 266.714844 191.074219 268.476562 191.867188 " fill-opacity="1" fill-rule="evenodd"/><path fill="#000000" d="M 303.25 193.96875 C 306.050781 193.90625 308.6875 196.808594 307.117188 198.882812 C 305.234375 197.835938 304.390625 195.753906 303.25 193.96875 " fill-opacity="1" fill-rule="evenodd"/><path fill="#000000" d="M 310.277344 201.339844 C 312.867188 200.996094 313.125 206.234375 310.976562 206.601562 C 310.511719 205.078125 310.386719 203.214844 310.277344 201.339844 " fill-opacity="1" fill-rule="evenodd"/><path fill="#000000" d="M 259.695312 202.039062 C 261.359375 201.757812 261.085938 206.03125 260.046875 206.25 C 258.21875 206.367188 258.90625 202.503906 259.695312 202.039062 " fill-opacity="1" fill-rule="evenodd"/><path fill="#000000" d="M 313.085938 210.109375 C 313.4375 210.109375 313.789062 210.109375 314.140625 210.109375 C 314.53125 211.722656 315.035156 215.707031 313.789062 216.777344 C 311.585938 216.351562 312.910156 212.179688 313.085938 210.109375 " fill-opacity="1" fill-rule="evenodd"/><path fill="#000000" d="M 260.746094 213.269531 C 262.175781 213.492188 262.621094 216.128906 261.800781 217.480469 C 260.171875 217.238281 259.976562 215.558594 259.695312 213.96875 C 259.976562 213.667969 260.65625 213.761719 260.746094 213.269531 " fill-opacity="1" fill-rule="evenodd"/><path fill="#000000" d="M 313.085938 220.636719 C 313.65625 220.535156 313.691406 220.96875 314.140625 220.988281 C 314.457031 222.425781 315.066406 225.046875 314.492188 226.25 C 314.257812 226.25 314.023438 226.25 313.789062 226.25 C 312.023438 225.488281 312.253906 222.101562 313.085938 220.636719 " fill-opacity="1" fill-rule="evenodd"/><path fill="#000000" d="M 25.054688 236.777344 C 26.730469 240.949219 28.535156 244.992188 30.320312 249.058594 C 33.929688 242.722656 38.308594 237.152344 40.859375 229.757812 C 40.78125 229.484375 40.566406 229.351562 40.15625 229.410156 C 35.792969 232.535156 30.332031 234.566406 25.054688 236.777344 Z M 45.425781 225.898438 C 45.027344 234.972656 41.589844 238.644531 37.347656 245.546875 C 35.671875 248.269531 32.703125 255.230469 29.269531 255.023438 C 26.007812 254.824219 25.617188 248.582031 24.351562 245.546875 C 23.210938 242.820312 19.675781 238.789062 20.488281 235.375 C 21.066406 232.929688 26.71875 232.011719 31.023438 230.109375 C 36.925781 227.507812 40.875 222.71875 45.425781 225.898438 " fill-opacity="1" fill-rule="evenodd"/><path fill="#ffe000" d="M 40.15625 229.410156 C 40.566406 229.351562 40.78125 229.484375 40.859375 229.757812 C 38.308594 237.152344 33.929688 242.722656 30.320312 249.058594 C 28.535156 244.992188 26.730469 240.949219 25.054688 236.777344 C 30.332031 234.566406 35.792969 232.535156 40.15625 229.410156 " fill-opacity="1" fill-rule="evenodd"/><path fill="#000000" d="M 315.546875 230.8125 C 316.960938 231.367188 318.371094 233.46875 317.652344 235.023438 C 315.527344 235.175781 314.851562 232.339844 315.546875 230.8125 " fill-opacity="1" fill-rule="evenodd"/><path fill="#000000" d="M 242.480469 232.566406 C 242.234375 234.660156 241.847656 236.609375 240.023438 237.128906 C 239.640625 235.699219 240.011719 232.285156 242.480469 232.566406 " fill-opacity="1" fill-rule="evenodd"/><path fill="#000000" d="M 126.566406 233.617188 C 128.273438 233.902344 127.664062 236.5 127.972656 238.179688 C 125.683594 238.472656 125.328125 234.71875 126.566406 233.617188 " fill-opacity="1" fill-rule="evenodd"/><path fill="#000000" d="M 320.460938 239.582031 C 322.160156 240.695312 324.054688 241.609375 324.328125 244.144531 C 321.523438 244.3125 319.664062 241.867188 320.460938 239.582031 " fill-opacity="1" fill-rule="evenodd"/><path fill="#000000" d="M 129.023438 242.390625 C 130.609375 242.5625 130.757812 244.167969 130.78125 245.898438 C 129.328125 245.699219 128.117188 243.828125 129.023438 242.390625 " fill-opacity="1" fill-rule="evenodd"/><path fill="#000000" d="M 236.511719 244.496094 C 236.109375 246.726562 234.78125 249.703125 232.296875 248.707031 C 233.277344 247.054688 234.457031 243.929688 236.511719 244.496094 " fill-opacity="1" fill-rule="evenodd"/><path fill="#000000" d="M 332.054688 250.8125 C 330.382812 251.648438 328.308594 250.207031 328.191406 248.355469 C 329.710938 247.671875 331.925781 248.96875 332.054688 250.8125 " fill-opacity="1" fill-rule="evenodd"/><path fill="#000000" d="M 137.808594 258.882812 C 135.417969 258.691406 133.4375 256.234375 133.945312 254.320312 C 135.667969 254.082031 137.714844 256.339844 137.808594 258.882812 " fill-opacity="1" fill-rule="evenodd"/><path fill="#000000" d="M 335.917969 253.96875 C 337.734375 253.90625 339.121094 254.28125 339.078125 256.074219 C 338.175781 257.226562 335.710938 256.019531 335.917969 253.96875 " fill-opacity="1" fill-rule="evenodd"/><path fill="#000000" d="M 271.285156 256.074219 C 260.386719 256.269531 249.851562 256.757812 242.835938 260.988281 C 241.464844 261.8125 240.515625 263.554688 238.621094 263.09375 C 244.101562 254.414062 258.921875 254.277344 271.285156 256.074219 " fill-opacity="1" fill-rule="evenodd"/><path fill="#000000" d="M 225.621094 255.722656 C 225.613281 258.40625 224.695312 260.179688 222.460938 260.636719 C 222.929688 258.414062 223.3125 256.105469 225.621094 255.722656 " fill-opacity="1" fill-rule="evenodd"/><path fill="#000000" d="M 362.261719 256.074219 C 362.65625 257.730469 361.96875 261.09375 359.101562 260.636719 C 358.753906 258.871094 360.1875 256.515625 362.261719 256.074219 " fill-opacity="1" fill-rule="evenodd"/><path fill="#000000" d="M 144.480469 265.546875 C 142.75 265.792969 140.3125 263.921875 139.5625 262.039062 C 141.738281 261.351562 143.988281 263.40625 144.480469 265.546875 " fill-opacity="1" fill-rule="evenodd"/><path fill="#000000" d="M 340.484375 261.6875 C 341.246094 263.714844 339.796875 266.3125 338.027344 266.953125 C 336.460938 265.152344 338.449219 262.097656 340.484375 261.6875 " fill-opacity="1" fill-rule="evenodd"/><path fill="#000000" d="M 218.597656 265.898438 C 218.019531 268.480469 216.839844 270.457031 213.679688 270.460938 C 213.519531 268.582031 216.785156 265.777344 218.597656 265.898438 " fill-opacity="1" fill-rule="evenodd"/><path fill="#000000" d="M 355.941406 267.300781 C 355.980469 269.449219 355.324219 270.898438 353.480469 271.164062 C 351.980469 269.988281 353.789062 265.867188 355.941406 267.300781 " fill-opacity="1" fill-rule="evenodd"/><path fill="#000000" d="M 150.101562 269.757812 C 152.796875 270.339844 154.769531 271.644531 155.722656 273.96875 C 152.84375 273.570312 150.554688 272.582031 150.101562 269.757812 " fill-opacity="1" fill-rule="evenodd"/><path fill="#000000" d="M 335.917969 271.511719 C 335.398438 272.984375 335.078125 274.652344 333.8125 275.375 C 331.945312 274.214844 334.15625 270.167969 335.917969 271.511719 " fill-opacity="1" fill-rule="evenodd"/><path fill="#000000" d="M 207.710938 275.023438 C 207.925781 277.34375 206.519531 278.042969 204.898438 278.53125 C 204.023438 276.820312 205.765625 275.050781 207.710938 275.023438 " fill-opacity="1" fill-rule="evenodd"/><path fill="#000000" d="M 350.671875 277.828125 C 349.714844 279.679688 349.648438 282.421875 346.808594 282.390625 C 346.933594 279.882812 348.441406 276.015625 350.671875 277.828125 " fill-opacity="1" fill-rule="evenodd"/><path fill="#000000" d="M 163.097656 277.828125 C 166.289062 278.148438 168.316406 279.632812 170.476562 280.988281 C 167.417969 281.929688 163.9375 280.269531 163.097656 277.828125 " fill-opacity="1" fill-rule="evenodd"/><path fill="#000000" d="M 199.980469 280.636719 C 198.546875 282.40625 195.9375 284.726562 193.308594 284.144531 C 193.984375 281.429688 197.050781 281.101562 199.980469 280.636719 " fill-opacity="1" fill-rule="evenodd"/><path fill="#000000" d="M 329.242188 282.390625 C 328.664062 283.917969 328.292969 285.652344 326.433594 285.898438 C 325.839844 284.472656 326.949219 282.066406 329.242188 282.390625 " fill-opacity="1" fill-rule="evenodd"/><path fill="#000000" d="M 185.578125 284.144531 C 184.628906 285.996094 179.386719 285.296875 177.851562 284.496094 C 177.636719 284.183594 177.425781 283.867188 177.851562 283.792969 C 179.277344 282.332031 184.417969 283.019531 185.578125 284.144531 " fill-opacity="1" fill-rule="evenodd"/><path fill="#000000" d="M 342.242188 288.355469 C 342.523438 288.542969 342.8125 288.722656 343.296875 288.707031 C 343.023438 290.773438 342.8125 292.902344 340.484375 292.917969 C 340.382812 290.707031 341.359375 289.582031 342.242188 288.355469 " fill-opacity="1" fill-rule="evenodd"/><path fill="#000000" d="M 214.382812 288.707031 C 216.609375 288.820312 217.296875 290.472656 217.542969 292.566406 C 215.316406 292.453125 214.511719 290.917969 214.382812 288.707031 " fill-opacity="1" fill-rule="evenodd"/><path fill="#000000" d="M 320.464844 295.023438 C 320.925781 295.144531 321.015625 295.640625 321.515625 295.722656 C 320.625 296.824219 320.800781 298.984375 318.707031 298.882812 C 318.390625 296.695312 319.351562 295.78125 320.464844 295.023438 " fill-opacity="1" fill-rule="evenodd"/><path fill="#000000" d="M 222.460938 296.074219 C 224.386719 297.195312 226.839844 297.78125 227.730469 299.933594 C 225.21875 300.933594 221.539062 298.507812 222.460938 296.074219 " fill-opacity="1" fill-rule="evenodd"/><path fill="#000000" d="M 336.269531 299.582031 C 335.875 302.113281 335.179688 304.34375 332.757812 304.847656 C 332.398438 302.890625 333.5625 299.625 336.269531 299.582031 " fill-opacity="1" fill-rule="evenodd"/><path fill="#000000" d="M 242.480469 304.144531 C 241.621094 305.851562 235.605469 306 236.160156 304.144531 C 237.335938 303.121094 241.75 302.488281 242.480469 304.144531 " fill-opacity="1" fill-rule="evenodd"/><path fill="#000000" d="M 254.074219 304.847656 C 253.726562 306.574219 250.375 306.878906 249.15625 306.601562 C 249.019531 304.367188 252.777344 303.457031 254.074219 304.847656 " fill-opacity="1" fill-rule="evenodd"/><path fill="#000000" d="M 267.070312 307.652344 C 265.109375 307.507812 262.257812 308.25 262.152344 306.25 C 263.492188 305.75 267.582031 305.175781 267.070312 307.652344 " fill-opacity="1" fill-rule="evenodd"/><path fill="#000000" d="M 312.386719 307.304688 C 312.699219 307.457031 313.011719 307.609375 313.085938 308.003906 C 312.527344 310.136719 311.382812 311.683594 309.222656 312.214844 C 309.082031 309.382812 311.066406 308.675781 312.386719 307.304688 " fill-opacity="1" fill-rule="evenodd"/><path fill="#000000" d="M 277.257812 310.460938 C 275.773438 311.25 272.496094 309.21875 272.691406 308.355469 C 274.113281 307.875 276.941406 308.699219 277.257812 310.460938 " fill-opacity="1" fill-rule="evenodd"/><path fill="#000000" d="M 327.488281 313.269531 C 326.523438 315.34375 326.054688 317.917969 322.921875 317.828125 C 323.539062 315.585938 324.835938 312.324219 327.488281 313.269531 " fill-opacity="1" fill-rule="evenodd"/><path fill="#000000" d="M 283.230469 313.269531 C 284.675781 313.34375 285.496094 314.046875 285.6875 315.375 C 284.527344 316.1875 283.078125 314.867188 283.230469 313.269531 " fill-opacity="1" fill-rule="evenodd"/><path fill="#000000" d="M 292.714844 319.933594 C 291.078125 320.835938 289.601562 318.9375 288.5 318.179688 C 289.636719 316.550781 292.992188 317.902344 292.714844 319.933594 " fill-opacity="1" fill-rule="evenodd"/><path fill="#000000" d="M 304.65625 319.582031 C 304.140625 322.109375 302.875 323.882812 300.792969 324.847656 C 300.15625 322.695312 302.675781 319.117188 304.65625 319.582031 " fill-opacity="1" fill-rule="evenodd"/><path fill="#000000" d="M 316.25 327.652344 C 316.035156 329.664062 315.546875 331.398438 313.085938 331.160156 C 313.226562 329.226562 314.546875 326.890625 316.25 327.652344 " fill-opacity="1" fill-rule="evenodd"/><path fill="#000000" d="M 308.167969 338.882812 C 308.289062 340.992188 307.273438 341.964844 305.710938 342.390625 C 304.746094 340.695312 306.46875 339.042969 308.167969 338.882812 " fill-opacity="1" fill-rule="evenodd"/><g clip-path="url(#0033702a46)"><path fill="#000000" d="M 247.046875 140.285156 C 236.429688 132.320312 223.355469 125.398438 204.546875 126.601562 C 192.332031 127.382812 181.183594 133.957031 173.285156 140.285156 C 164.222656 147.546875 157.289062 158.164062 149.75 169.410156 C 142.710938 179.90625 133.832031 191.28125 129.375 201.6875 C 125.96875 209.648438 122.070312 224.507812 123.40625 234.320312 C 125.210938 247.589844 134.273438 261.328125 143.425781 268.707031 C 153.714844 276.996094 164.601562 285.519531 177.851562 289.058594 C 193.0625 293.117188 204.019531 287.207031 212.273438 279.933594 C 227.140625 266.839844 240.417969 251.195312 249.15625 232.917969 C 242.882812 226.859375 233.90625 215.308594 237.214844 201.6875 C 238.179688 197.714844 241.679688 193.398438 244.589844 189.757812 C 251.433594 181.203125 260.277344 172.441406 272.691406 170.8125 C 267.453125 157.582031 257.972656 148.480469 247.046875 140.285156 Z M 158.882812 85.199219 C 136.480469 80.441406 115.773438 73.992188 93.199219 69.410156 C 95.523438 78.007812 97.511719 87.378906 99.167969 96.777344 C 100.820312 106.144531 103.671875 115.683594 102.679688 125.199219 C 85.386719 125.566406 70.667969 118.667969 53.152344 119.230469 C 56.367188 139.53125 63.671875 155.742188 69.664062 173.265625 C 68.242188 175.777344 65.285156 175.480469 62.988281 176.425781 C 57.113281 178.84375 51.65625 183.316406 46.128906 186.601562 C 40.300781 190.0625 34.167969 193.140625 30.320312 198.179688 C 40.949219 204.59375 54.222656 209.78125 67.554688 213.96875 C 70.984375 215.046875 79.730469 216.582031 79.847656 219.582031 C 79.910156 221.074219 77.609375 222 75.984375 223.441406 C 69.691406 229.03125 65.484375 236.953125 60.882812 245.199219 C 57.289062 251.632812 54.292969 258.875 52.800781 266.25 C 60.078125 264.894531 67.148438 262.8125 74.230469 260.636719 C 80.671875 258.65625 88.074219 254.132812 94.953125 257.128906 C 94.824219 278.753906 97.238281 303.347656 103.734375 320.636719 C 108.511719 315.609375 111.285156 309.261719 116.378906 303.441406 C 118.300781 301.25 120.78125 298.578125 123.40625 295.722656 C 125.015625 293.972656 129.140625 288.886719 132.1875 289.40625 C 135.175781 289.921875 137.410156 297.417969 138.859375 300.285156 C 141.132812 304.769531 143.308594 307.945312 145.886719 311.164062 C 148.378906 300.203125 151.160156 289.53125 155.371094 280.285156 C 143.335938 273.113281 133.457031 264.636719 127.269531 251.511719 C 123.660156 243.859375 120.089844 237.1875 120.945312 226.601562 C 122.605469 206.136719 131.496094 192.546875 141.320312 177.828125 C 149.484375 165.601562 160.371094 147.480469 171.527344 138.882812 C 178.101562 133.816406 185.953125 128.378906 194.359375 125.898438 C 217.351562 119.117188 238.742188 129.960938 253.019531 142.039062 C 267.425781 129.527344 280.117188 115.304688 295.171875 103.445312 C 280.808594 100.738281 262.828125 101.679688 249.507812 104.847656 C 247.707031 101.191406 247.320312 96.765625 246.699219 92.566406 C 244.773438 79.601562 242.589844 66.222656 241.429688 52.566406 C 235.070312 59.621094 227.113281 68.011719 220.703125 76.777344 C 218.964844 79.15625 216.125 84.8125 213.328125 84.847656 C 209.59375 84.890625 205.53125 76.816406 203.492188 73.617188 C 195.105469 60.460938 186.328125 47.644531 177.851562 35.726562 C 177.5 35.726562 177.433594 35.441406 177.148438 35.371094 C 170.324219 51.242188 165.914062 69.53125 158.882812 85.199219 Z M 281.824219 218.53125 C 284.613281 219.019531 287.167969 219.742188 289.550781 220.636719 C 291.164062 226.28125 293.769531 232.796875 295.171875 237.476562 C 291.394531 234.117188 289.046875 229.328125 288.144531 223.09375 C 286.28125 221.796875 283.820312 221.097656 281.121094 220.636719 C 279.257812 234.007812 263.699219 242.730469 251.265625 234.320312 C 245.203125 245.953125 238.074219 257.015625 229.484375 266.25 C 221.011719 275.359375 212.152344 285.210938 199.980469 290.460938 C 213.257812 302.828125 227.695312 323.835938 251.613281 325.546875 C 263.671875 326.410156 269.117188 321.316406 279.011719 320.988281 C 277.507812 322.523438 275.394531 323.453125 272.691406 323.792969 C 280.765625 329.878906 289.4375 335.371094 297.628906 341.335938 C 302.644531 334.648438 309.417969 327.847656 315.546875 323.441406 C 310.097656 330.515625 303.59375 336.535156 297.984375 343.445312 C 296.214844 343.78125 294.949219 344.625 294.820312 346.601562 C 297.285156 349.792969 299.035156 345.34375 302.898438 345.898438 C 300.367188 348.234375 301.433594 353.1875 304.304688 353.617188 C 308.105469 354.191406 309.742188 349.332031 311.683594 346.601562 C 315.914062 340.636719 320.328125 334.132812 323.976562 328.355469 C 337.15625 307.472656 352.371094 289.074219 364.371094 268.003906 C 367.902344 261.804688 374.902344 255.925781 370.34375 249.757812 C 367.09375 248.972656 366.839844 251.171875 364.722656 251.511719 C 364.582031 249.78125 364.542969 247.949219 363.667969 246.953125 C 362.679688 246.421875 361.472656 246.105469 359.804688 246.25 C 354.949219 258.710938 349.164062 272.113281 340.484375 279.585938 C 346.226562 269.414062 352.578125 259.847656 356.992188 248.355469 C 352.984375 245.773438 348.242188 241.980469 344.347656 238.882812 C 341.246094 236.414062 340.347656 234.683594 337.324219 235.726562 C 338.066406 233.035156 338.683594 233.0625 339.078125 231.164062 C 343.214844 211.289062 336.371094 198.59375 325.730469 189.410156 C 316.378906 181.332031 302.410156 174.089844 287.445312 172.566406 C 274.386719 171.238281 263.082031 174.835938 255.832031 180.988281 C 250.21875 185.75 242.160156 194.136719 239.671875 202.390625 C 237.269531 210.367188 242.621094 222.382812 245.644531 226.25 C 250.609375 232.601562 262.515625 238.28125 270.585938 232.917969 C 280.875 226.070312 278.699219 208.183594 286.039062 199.234375 C 283.953125 204.984375 282.953125 211.824219 281.824219 218.53125 Z M 212.976562 79.933594 C 219.269531 70.832031 226.886719 63.128906 234.402344 53.96875 C 235.558594 52.5625 239.75 45.894531 242.132812 45.902344 C 246.035156 45.90625 245.90625 53.351562 246.347656 57.828125 C 247.792969 72.460938 250.136719 86.539062 252.316406 99.933594 C 263.058594 97.292969 278.714844 97.128906 290.957031 98.882812 C 295.132812 99.480469 300.117188 100.179688 300.089844 103.792969 C 300.066406 106.976562 291.082031 111.800781 288.851562 113.621094 C 277.332031 122.988281 267.777344 134.566406 257.234375 144.144531 C 264.460938 151.433594 271.800781 158.601562 275.5 169.410156 C 294.96875 167.703125 311.027344 174.210938 323.273438 183.445312 C 337.332031 194.042969 348.320312 208.527344 341.890625 231.863281 C 346.148438 236.617188 351.761719 240.015625 356.644531 244.144531 C 360.324219 242.035156 365.738281 243.4375 367.179688 246.601562 C 372.566406 245.664062 375.800781 250.066406 375.257812 255.722656 C 375.046875 257.9375 372.8125 260.527344 371.042969 263.09375 C 369.105469 265.902344 368.167969 268.71875 367.179688 270.460938 C 362.964844 277.90625 357.503906 284.632812 352.425781 291.863281 C 347.714844 298.578125 343.3125 306 338.027344 313.617188 C 335.40625 317.394531 332.582031 320.566406 330.300781 324.144531 C 325.59375 331.527344 321.75 338.375 316.246094 346.25 C 312.296875 351.902344 310.472656 357.21875 302.550781 356.425781 C 300.691406 355.003906 298.4375 353.984375 298.332031 350.8125 C 292.199219 352.195312 289.871094 345.109375 293.417969 342.039062 C 285.265625 337.082031 278.027344 331.210938 269.878906 326.25 C 235.710938 337.324219 214.125 309.226562 197.523438 292.917969 C 181.644531 296.527344 168.441406 289.527344 158.53125 283.792969 C 155.375 291.589844 153.117188 300.167969 150.804688 310.109375 C 150.148438 312.9375 149.019531 316.933594 146.589844 317.125 C 142.71875 317.433594 139.53125 309.777344 137.808594 306.953125 C 135.136719 302.574219 133.125 298.765625 131.132812 294.671875 C 123.550781 301.21875 117.054688 308.707031 111.113281 318.179688 C 109.261719 321.125 107.484375 325.3125 103.734375 325.199219 C 97.074219 324.996094 95.007812 307.039062 93.898438 300.285156 C 91.558594 286.027344 90.632812 275.089844 90.386719 260.636719 C 79.605469 262.652344 69.222656 266.871094 58.421875 269.757812 C 55.148438 270.636719 50.917969 271.953125 48.234375 268.707031 C 48.871094 260.128906 52.050781 252.4375 55.613281 245.898438 C 60.753906 236.457031 65.941406 227.457031 73.175781 220.285156 C 60.445312 215.925781 47.242188 212.285156 35.238281 205.898438 C 32.605469 204.5 25.9375 201.613281 25.753906 198.179688 C 25.480469 193.046875 37.351562 186.621094 40.859375 184.496094 C 49.824219 179.0625 55.515625 175.097656 64.394531 171.511719 C 58.40625 153.871094 50.882812 137.757812 48.585938 116.425781 C 51.71875 113.457031 56.832031 114.671875 60.882812 115.023438 C 73.761719 116.132812 85.320312 120.160156 98.464844 120.636719 C 96.769531 102.09375 92.183594 83.402344 87.929688 66.25 C 88.546875 65.933594 89.015625 65.464844 89.332031 64.847656 C 112.425781 67.980469 134.457031 75.207031 156.425781 80.636719 C 162.441406 63.839844 168.023438 46.609375 174.335938 30.109375 C 178.191406 26.6875 184.492188 37.046875 186.632812 40.285156 C 195.105469 53.097656 205.4375 69.234375 212.976562 79.933594 " fill-opacity="1" fill-rule="evenodd"/></g></svg>